<?xml version="1.0" encoding="utf-8"?><svg viewBox="0 0 1880 200" xmlns="http://www.w3.org/2000/svg" xmlns:xlink="http://www.w3.org/1999/xlink"><style>:root>svg{display:none}:root>svg:target{display:block}</style><svg viewBox="0 0 23 22" id="basket" xmlns="http://www.w3.org/2000/svg"><path d="m10.71 18.903.79.692.79-.692 1.231-1.078.002-.001.038-.033c2.148-1.873 4.029-3.514 5.361-5.081 1.352-1.591 2.278-3.263 2.278-5.214 0-3.234-2.64-5.696-5.875-5.696-1.4 0-2.751.477-3.825 1.281A6.424 6.424 0 0 0 7.675 1.8C4.44 1.8 1.8 4.262 1.8 7.496c0 1.95.926 3.623 2.278 5.214 1.332 1.567 3.213 3.208 5.361 5.08l.038.034.002.001 1.23 1.078Z"/></svg><svg viewBox="0 0 16 12" id="black-check" xmlns="http://www.w3.org/2000/svg"><path d="M1 4.6 6.25 10 15 1"/></svg><svg viewBox="0 0 498 102" id="border" xmlns="http://www.w3.org/2000/svg"><path d="M.5 1H497v100.5"/></svg><svg viewBox="0 0 1880 200" id="border-com" xmlns="http://www.w3.org/2000/svg"><path d="M756 1H1v198h1878V1h-754"/></svg><svg viewBox="0 0 8 6" id="check" xmlns="http://www.w3.org/2000/svg"><path d="M1 2.5 3.5 5l4-4"/></svg><svg viewBox="0 0 21 21" id="facebook" xmlns="http://www.w3.org/2000/svg"><g clip-path="url(#fa)"><path fill-rule="evenodd" clip-rule="evenodd" d="M0 0v21h21V0H0Zm13.893 5.78H12.25c-.325 0-.653.335-.653.585V8.04h2.291c-.092 1.283-.281 2.457-.281 2.457h-2.022v7.273H8.574v-7.274H7.108V8.048h1.466V6.047c0-.366-.074-2.816 3.086-2.816h2.232v2.548Z"/></g><defs><clipPath id="fa"><path d="M0 0h21v21H0z"/></clipPath></defs></svg><svg viewBox="0 0 21 21" id="instagram" xmlns="http://www.w3.org/2000/svg"><g clip-path="url(#ga)"><path d="M3.83 21H21V0H0v21H3.829ZM14.355 3.281c0-.255.091-.476.274-.663a.9.9 0 0 1 .67-.28h2.379c.264 0 .487.093.67.28a.92.92 0 0 1 .273.663v2.256a.91.91 0 0 1-.273.67.91.91 0 0 1-.67.273h-2.38a.91.91 0 0 1-.67-.273.909.909 0 0 1-.273-.67V3.28Zm-.854 5.091c.824.798 1.237 1.762 1.237 2.892s-.413 2.094-1.237 2.891c-.825.798-1.821 1.196-2.988 1.196-1.157 0-2.148-.398-2.973-1.196-.825-.797-1.237-1.76-1.237-2.891 0-1.13.412-2.094 1.237-2.892.825-.797 1.816-1.196 2.973-1.196 1.167 0 2.163.4 2.988 1.196Zm-7.856-5.09c0-.256.091-.477.274-.664a.9.9 0 0 1 .67-.28h.5c.265 0 .488.093.67.28a.919.919 0 0 1 .274.663v2.256a.91.91 0 0 1-.273.67.91.91 0 0 1-.67.273H6.59a.91.91 0 0 1-.67-.273.91.91 0 0 1-.274-.67V3.28Zm-3.307 0c0-.256.09-.477.273-.664a.9.9 0 0 1 .67-.28h.501c.264 0 .488.093.67.28a.919.919 0 0 1 .273.663v2.256a.91.91 0 0 1-.273.67.91.91 0 0 1-.67.273h-.5a.91.91 0 0 1-.67-.273.91.91 0 0 1-.274-.67V3.28Zm0 15V9.424h1.927a5.882 5.882 0 0 0-.273 1.791c0 1.75.638 3.243 1.914 4.478 1.276 1.235 2.812 1.852 4.607 1.852a6.564 6.564 0 0 0 3.282-.848 6.375 6.375 0 0 0 2.378-2.303 6.06 6.06 0 0 0 .875-3.179c0-.62-.09-1.217-.273-1.791h1.846v8.86a.795.795 0 0 1-.247.594.81.81 0 0 1-.587.24H3.173a.804.804 0 0 1-.595-.24.806.806 0 0 1-.24-.594Z"/></g><defs><clipPath id="ga"><path d="M0 0h21v21H0z"/></clipPath></defs></svg><svg viewBox="0 0 10 16" id="next-arrow" xmlns="http://www.w3.org/2000/svg"><path d="M9.07 1 2 8.07l7.07 7.072"/></svg><svg viewBox="0 0 10 16" id="prev-arrow" xmlns="http://www.w3.org/2000/svg"><path d="M.93 15 8 7.93.93.857"/></svg><svg viewBox="0 0 17 17" id="search" xmlns="http://www.w3.org/2000/svg"><circle cx="6.154" cy="6.154" r="4.954"/><path d="M11.487 11.487 16 16"/></svg><svg viewBox="0 0 21 21" id="twitter" xmlns="http://www.w3.org/2000/svg"><g clip-path="url(#ka)"><path fill-rule="evenodd" clip-rule="evenodd" d="M0 0v21h21V0H0Zm16.28 7.535c.006.128.01.257.01.386 0 3.942-3 8.486-8.487 8.486a8.44 8.44 0 0 1-4.572-1.34 5.984 5.984 0 0 0 4.416-1.235 2.986 2.986 0 0 1-2.787-2.071 2.976 2.976 0 0 0 1.347-.051 2.985 2.985 0 0 1-2.392-2.962 2.97 2.97 0 0 0 1.35.373 2.981 2.981 0 0 1-.922-3.983 8.468 8.468 0 0 0 6.148 3.117 2.983 2.983 0 0 1 5.083-2.72 5.971 5.971 0 0 0 1.893-.724 2.991 2.991 0 0 1-1.311 1.65 5.964 5.964 0 0 0 1.713-.47 6.055 6.055 0 0 1-1.488 1.544Z"/></g><defs><clipPath id="ka"><path d="M0 0h21v21H0z"/></clipPath></defs></svg><svg viewBox="0 0 18 22" id="wallet" xmlns="http://www.w3.org/2000/svg"><path d="M1.273 20.8 2.13 6.2H15.87l.858 14.6H1.273ZM5 5V3a1 1 0 0 1 1-1h6a1 1 0 0 1 1 1v2"/></svg></svg>